<svg id="Drawing_copy" data-name="Drawing copy" xmlns="http://www.w3.org/2000/svg" viewBox="0 0 1024 1024"><defs><style>.cls-1,.cls-2{fill:none;stroke:#3fa9f5;stroke-miterlimit:10;}.cls-1{stroke-width:38.15px;}.cls-2{stroke-width:26.71px;}</style></defs><path class="cls-1" d="M243.83,345.68v111.6a48,48,0,0,0,48,48H469.9a48,48,0,0,0,48-48V345.68"/><path class="cls-1" d="M605,345.68V609.89a48,48,0,0,0,48,48H831.08a48,48,0,0,0,48-48V345.68"/><path class="cls-1" d="M518.07,676.33V556.92c0-28.78-21.48-52.11-48-52.11H292c-26.51,0-48,23.33-48,52.11l.46,119.41"/><polyline class="cls-2" points="563.68 317.7 563.68 242.94 144 160 144 863 563.68 782.38 563.68 705.75"/></svg>