<svg id="light_w_name" data-name="light w/ name" xmlns="http://www.w3.org/2000/svg" viewBox="0 0 1024 1024"><defs><style>.cls-1,.cls-2{fill:none;stroke:#3fa9f5;stroke-miterlimit:10;}.cls-1{stroke-width:19.15px;}.cls-2{stroke-width:13.41px;}.cls-3{font-size:90px;fill:#3fa9f5;font-family:Verdana;}</style></defs><path class="cls-1" d="M101.27,448.5v56a24.1,24.1,0,0,0,24.1,24.1h89.4a24.1,24.1,0,0,0,24.1-24.1v-56"/><path class="cls-1" d="M282.6,448.5V581.16a24.1,24.1,0,0,0,24.1,24.1h89.4a24.1,24.1,0,0,0,24.1-24.1V448.5"/><path class="cls-1" d="M239,614.51v-60c0-14.45-10.79-26.16-24.1-26.16h-89.4c-13.31,0-24.1,11.71-24.1,26.16l.23,60"/><polyline class="cls-2" points="261.85 434.46 261.85 396.93 51.15 355.28 51.15 708.23 261.85 667.76 261.85 629.28"/><text class="cls-3" transform="translate(495.97 562.29)">GEORGE</text></svg>